<?xml version="1.0" encoding="UTF-8"?>
<svg id="Layer_1" xmlns="http://www.w3.org/2000/svg" version="1.1" viewBox="0 0 512 512">
  <!-- Generator: Adobe Illustrator 29.4.0, SVG Export Plug-In . SVG Version: 2.1.0 Build 152)  -->
  <defs>
    <style>
      .st0 {
        fill: #2e322d;
      }
    </style>
  </defs>
  <path class="st0" d="M310.89,367.42c-46.19,21.75-51.59-11.42-51.59-11.42l3.24-1.59c1.07-15.66-2.17-39.02-2.17-39.02-4.86-1.05-11.18-1.69-11.18-1.69,4.13-73.82,104.12-138.92,110.03-213.33,5.91-74.39-84.7-104.83-132.06-83.03-47.34,21.79-31.12,69.96-31.12,69.96,0,0-5.29,3.26-6.62,10.74-1.34,7.48,3.97,8.46,3.97,8.46-4.64,39.71-39.55,71.43-16.44,61.78,23.1-9.65,32.01-30.44,52.4-40.89,20.41-10.44,34.42-26.72,39.1-36.33,4.68-9.59,27.62-16.69,31.45,10.03,3.83,26.72.85,36.33-61.19,102.72-62.04,66.39-58.7,110.25-58.7,110.25-8.04.7-9.38,2.15-9.38,2.15-4.72,17.89,0,45.07,0,45.07,3.32,1.63,6.87,1.87,6.87,1.87h.02c3.5,83.11,59.66,134.72,78.69,149.89h257.4v-155.01c-83.99-30.44-165.64-8.08-202.71,9.39Z"/>
</svg>