<svg xmlns="http://www.w3.org/2000/svg" width="448" height="275" viewBox="0 0 448 275" fill="none">
  <path
    d="M187.811 198.121C184.771 198.121 182.491 198.38 180.97 198.899C179.45 199.352 178.426 200.162 177.897 201.329C177.368 202.43 177.104 204.018 177.104 206.091V263.045C177.104 265.119 177.368 266.739 177.897 267.905C178.426 269.007 179.45 269.816 180.97 270.335C182.491 270.788 184.771 271.015 187.811 271.015V273.445H153.508V271.015C156.284 271.015 158.366 270.788 159.754 270.335C161.208 269.816 162.166 269.007 162.629 267.905C163.158 266.739 163.422 265.119 163.422 263.045V234.763H134.373V263.045C134.373 265.119 134.604 266.739 135.067 267.905C135.596 269.007 136.554 269.816 137.942 270.335C139.396 270.788 141.511 271.015 144.287 271.015V273.445H109.984V271.015C113.024 271.015 115.304 270.788 116.824 270.335C118.345 269.816 119.369 269.007 119.898 267.905C120.427 266.739 120.691 265.119 120.691 263.045V206.091C120.691 204.018 120.427 202.43 119.898 201.329C119.369 200.162 118.345 199.352 116.824 198.899C115.304 198.38 113.024 198.121 109.984 198.121V195.691H144.287V198.121C141.511 198.121 139.396 198.38 137.942 198.899C136.554 199.352 135.596 200.162 135.067 201.329C134.604 202.43 134.373 204.018 134.373 206.091V230.195H163.422V206.091C163.422 204.018 163.158 202.43 162.629 201.329C162.166 200.162 161.208 199.352 159.754 198.899C158.366 198.38 156.284 198.121 153.508 198.121V195.691H187.811V198.121Z"
    fill="currentColor" />
  <path
    d="M223.928 275C214.675 275 207.834 272.505 203.406 267.516C198.977 262.462 196.763 255.464 196.763 246.523V206.091C196.763 204.018 196.499 202.43 195.97 201.329C195.441 200.162 194.417 199.352 192.896 198.899C191.376 198.38 189.096 198.121 186.056 198.121V195.691H224V198.121C220.96 198.121 215.832 198.38 214.312 198.899C212.791 199.352 211.767 200.162 211.238 201.329C210.709 202.43 210.445 204.018 210.445 206.091V246.523C210.445 254.428 211.833 260.13 214.609 263.629C217.451 267.127 221.714 268.877 227.398 268.877C233.017 268.877 237.313 267.03 240.287 263.337C243.328 259.579 244.848 253.845 244.848 246.134V206.091C244.848 204.018 244.583 202.43 244.055 201.329C243.526 200.162 242.502 199.352 240.981 198.899C239.461 198.38 237.181 198.121 234.14 198.121V195.691H260.413V198.121C257.373 198.121 255.093 198.38 253.572 198.899C252.052 199.352 251.028 200.162 250.499 201.329C249.97 202.43 249.706 204.018 249.706 206.091V246.134C249.706 254.752 247.723 261.717 243.757 267.03C239.858 272.343 233.248 275 223.928 275Z"
    fill="currentColor" />
  <path
    d="M269.318 206.091C269.318 204.018 269.053 202.43 268.525 201.329C267.996 200.162 266.971 199.352 265.451 198.899C263.931 198.38 261.651 198.121 258.61 198.121V195.691H293.707V198.121C290.667 198.121 288.386 198.38 286.866 198.899C285.346 199.352 284.322 200.162 283.793 201.329C283.264 202.43 283 204.018 283 206.091V263.045C283 265.119 283.264 266.739 283.793 267.905C284.322 269.007 285.346 269.816 286.866 270.335C288.386 270.788 290.667 271.015 293.707 271.015V273.445H258.61V271.015C261.651 271.015 263.931 270.788 265.451 270.335C266.971 269.816 267.996 269.007 268.525 267.905C269.053 266.739 269.318 265.119 269.318 263.045V206.091Z"
    fill="currentColor" />
  <path
    d="M317.398 275C314.357 275 311.416 274.417 308.574 273.251C305.798 272.084 303.386 270.529 301.337 268.585C300.676 267.937 300.081 267.613 299.552 267.613C298.825 267.613 298.362 268.229 298.164 269.46L297.272 273.834H294.595L294.892 244.287H297.569C297.833 248.758 298.825 253.035 300.543 257.117C302.262 261.134 304.542 264.374 307.384 266.836C310.293 269.298 313.531 270.529 317.1 270.529C320.802 270.529 323.644 269.363 325.627 267.03C327.61 264.698 328.601 261.944 328.601 258.769C328.601 254.946 327.378 251.577 324.933 248.661C322.487 245.68 318.852 242.376 314.027 238.747C309.466 235.378 305.996 232.657 303.617 230.583C301.237 228.445 299.255 225.983 297.668 223.197C296.148 220.346 295.388 217.106 295.388 213.478C295.388 209.525 296.28 206.091 298.065 203.175C299.915 200.26 302.394 198.024 305.501 196.469C308.607 194.914 312.077 194.136 315.911 194.136C321.331 194.136 325.891 195.789 329.593 199.093C330.254 199.676 330.848 199.968 331.377 199.968C331.774 199.968 332.137 199.806 332.468 199.482C332.798 199.093 332.996 198.607 333.063 198.024L333.558 195.108H336.037L337.227 220.767H334.55C334.219 216.879 333.294 213.251 331.774 209.881C330.32 206.447 328.304 203.694 325.726 201.62C323.214 199.547 320.306 198.51 317.001 198.51C313.63 198.51 310.987 199.514 309.07 201.523C307.219 203.532 306.294 206.026 306.294 209.007C306.294 211.275 306.822 213.348 307.88 215.227C309.004 217.106 310.557 218.953 312.54 220.767C314.523 222.516 317.365 224.719 321.066 227.376C325.23 230.421 328.601 233.175 331.179 235.637C333.757 238.035 335.772 240.724 337.227 243.704C338.747 246.62 339.507 249.957 339.507 253.715C339.507 257.991 338.549 261.75 336.632 264.989C334.715 268.164 332.071 270.626 328.7 272.376C325.329 274.125 321.562 275 317.398 275Z"
    fill="currentColor" />
  <path
    d="M203.087 2.4298C200.047 2.4298 197.766 2.68897 196.246 3.20733C194.726 3.66089 193.701 4.47082 193.173 5.63713C192.644 6.73864 192.379 8.3261 192.379 10.3995V67.3539C192.379 69.4274 192.644 71.0472 193.173 72.2135C193.701 73.315 194.726 74.125 196.246 74.6433C197.766 75.0969 200.047 75.3237 203.087 75.3237V77.7535H168.783V75.3237C171.559 75.3237 173.641 75.0969 175.029 74.6433C176.483 74.125 177.442 73.315 177.904 72.2135C178.433 71.0472 178.698 69.4274 178.698 67.3539V39.0711H149.648V67.3539C149.648 69.4274 149.88 71.0472 150.342 72.2135C150.871 73.315 151.83 74.125 153.218 74.6433C154.672 75.0969 156.787 75.3237 159.563 75.3237V77.7535H125.259V75.3237C128.299 75.3237 130.58 75.0969 132.1 74.6433C133.62 74.125 134.645 73.315 135.173 72.2135C135.702 71.0472 135.967 69.4274 135.967 67.3539V10.3995C135.967 8.3261 135.702 6.73864 135.173 5.63713C134.645 4.47082 133.62 3.66089 132.1 3.20733C130.58 2.68897 128.299 2.4298 125.259 2.4298V0H159.563V2.4298C156.787 2.4298 154.672 2.68897 153.218 3.20733C151.83 3.66089 150.871 4.47082 150.342 5.63713C149.88 6.73864 149.648 8.3261 149.648 10.3995V34.5031H178.698V10.3995C178.698 8.3261 178.433 6.73864 177.904 5.63713C177.442 4.47082 176.483 3.66089 175.029 3.20733C173.641 2.68897 171.559 2.4298 168.783 2.4298V0H203.087V2.4298Z"
    fill="currentColor" />
  <path
    d="M256.852 3.40172L258.735 20.2159L255.86 20.5075C255.397 16.1663 254.736 12.8941 253.877 10.6911C253.084 8.4233 251.96 6.90062 250.506 6.12309C249.118 5.28076 247.202 4.85959 244.756 4.85959H232.066C230.479 4.85959 229.257 5.28076 228.397 6.12309C227.538 6.90062 227.108 8.09932 227.108 9.71918V35.6694H238.014C240.063 35.6694 241.616 35.3778 242.674 34.7947C243.731 34.2115 244.492 33.11 244.954 31.4902C245.483 29.8055 245.747 27.3433 245.747 24.1036H248.127V51.0257H245.747C245.747 47.786 245.483 45.3562 244.954 43.7363C244.492 42.0517 243.731 40.9178 242.674 40.3346C241.616 39.7515 240.063 39.4599 238.014 39.4599H227.108V67.3539C227.108 69.6217 227.406 71.112 228.001 71.8248C228.596 72.5375 229.851 72.8939 231.768 72.8939H244.657C247.235 72.8939 249.35 72.4079 251.002 71.436C252.654 70.4641 254.109 68.7146 255.364 66.1877C256.62 63.5959 257.876 59.8054 259.132 54.8162L262.106 55.5937L257.248 74.449L256.455 77.7535H202.719V75.3237C205.759 75.3237 208.04 75.0969 209.56 74.6433C211.08 74.125 212.105 73.315 212.633 72.2135C213.162 71.0472 213.427 69.4274 213.427 67.3539V10.3995C213.427 8.3261 213.162 6.73864 212.633 5.63713C212.105 4.47082 211.08 3.66089 209.56 3.20733C208.04 2.68897 205.759 2.4298 202.719 2.4298V0H256.455L256.852 3.40172Z"
    fill="currentColor" />
  <path
    d="M275.186 4.85959C272.608 4.85959 270.592 5.28076 269.138 6.12309C267.75 6.90062 266.66 8.3909 265.867 10.5939C265.14 12.7969 264.611 16.1015 264.28 20.5075L261.306 20.3131L262.595 3.40172L262.793 0H319.702L319.9 3.40172L321.189 20.3131L318.215 20.5075C317.884 16.1015 317.322 12.7969 316.529 10.5939C315.802 8.3909 314.711 6.90062 313.257 6.12309C311.869 5.28076 309.887 4.85959 307.309 4.85959H301.558C300.435 4.85959 299.576 5.15117 298.981 5.73432C298.386 6.31747 298.088 7.1598 298.088 8.26131V67.3539C298.088 69.4274 298.353 71.0472 298.882 72.2135C299.41 73.315 300.435 74.125 301.955 74.6433C303.475 75.0969 305.756 75.3237 308.796 75.3237V77.7535H273.699V75.3237C276.739 75.3237 279.02 75.0969 280.54 74.6433C282.06 74.125 283.085 73.315 283.613 72.2135C284.142 71.0472 284.407 69.4274 284.407 67.3539V8.26131C284.407 5.9935 283.25 4.85959 280.936 4.85959H275.186Z"
    fill="currentColor" />
  <path
    d="M0 174.731V172.301C3.04041 172.301 5.32074 172.074 6.84094 171.621C8.36115 171.102 9.38562 170.292 9.91438 169.191C10.4432 168.025 10.7075 166.405 10.7075 164.331V107.377C10.7075 105.304 10.4432 103.716 9.91438 102.615C9.38562 101.448 8.36115 100.638 6.84094 100.185C5.32074 99.6664 3.04041 99.4072 0 99.4072V96.9774H33.7089C41.5082 96.9774 47.556 98.5973 51.8522 101.837C56.2146 105.077 58.3957 109.872 58.3957 116.221C58.3957 121.47 56.8094 125.681 53.6368 128.856C50.5303 132.031 46.4324 133.91 41.343 134.493V134.979C47.6221 135.368 52.6123 137.28 56.3137 140.714C60.0812 144.083 61.9649 148.424 61.9649 153.737C61.9649 160.93 59.3211 166.243 54.0334 169.677C48.7457 173.046 41.6735 174.731 32.8166 174.731H0ZM24.0919 132.355C25.6122 132.614 27.8925 132.744 30.9329 132.744C35.163 132.744 38.6 131.416 41.2439 128.759C43.9538 126.038 45.3087 122.053 45.3087 116.805C45.3087 111.686 43.9538 107.831 41.2439 105.239C38.6 102.647 35.2291 101.351 31.1312 101.351C29.0822 101.351 27.3637 101.481 25.9757 101.74C24.7199 102.129 24.0919 102.971 24.0919 104.267V132.355ZM24.0919 167.441C24.0919 168.478 24.6538 169.223 25.7774 169.677C26.9671 170.13 28.7187 170.357 31.032 170.357C36.1214 170.357 40.3185 169.126 43.6233 166.664C46.9281 164.137 48.5805 159.861 48.5805 153.835C48.5805 147.874 46.8289 143.597 43.3259 141.005C39.8228 138.349 35.7249 137.02 31.032 137.02C28.3221 137.02 26.0087 137.182 24.0919 137.506V167.441Z"
    fill="currentColor" />
  <path
    d="M117.649 164.137C118.706 166.34 119.665 167.992 120.524 169.094C121.383 170.13 122.474 170.908 123.796 171.426C125.118 171.945 126.935 172.204 129.249 172.204V174.731H123.3C118.211 174.731 114.509 174.472 112.196 173.953C109.949 173.435 108.131 172.431 106.743 170.94C105.421 169.385 103.868 166.729 102.083 162.971L89.7895 137.992H88.4014C86.3525 137.992 84.8323 137.96 83.8408 137.895V164.331C83.8408 166.405 84.1052 168.025 84.634 169.191C85.1628 170.292 86.1873 171.102 87.7075 171.621C89.2277 172.074 91.5079 172.301 94.5484 172.301V174.731H59.4514V172.301C62.4918 172.301 64.7722 172.074 66.2924 171.621C67.8126 171.102 68.8371 170.292 69.3658 169.191C69.8946 168.025 70.159 166.405 70.159 164.331V107.377C70.159 105.304 69.8946 103.716 69.3658 102.615C68.8371 101.448 67.8126 100.638 66.2924 100.185C64.7722 99.6664 62.4918 99.4072 59.4514 99.4072V96.9774H92.1689C110.147 96.9774 119.136 103.619 119.136 116.902C119.136 123.187 117.153 127.982 113.187 131.286C109.288 134.526 104.033 136.567 97.4235 137.409C100.266 138.057 102.612 139.223 104.463 140.908C106.38 142.528 108.296 145.476 110.213 149.753L117.649 164.137ZM83.8408 133.91C85.9559 134.04 87.5422 134.105 88.5998 134.105C93.6891 134.105 97.721 132.744 100.695 130.023C103.736 127.236 105.256 122.928 105.256 117.096C105.256 111.913 104.033 107.993 101.588 105.336C99.2081 102.679 95.7712 101.351 91.2766 101.351C89.2277 101.351 87.3109 101.675 85.5263 102.323C84.4026 102.777 83.8408 103.619 83.8408 104.85V133.91Z"
    fill="currentColor" />
  <path
    d="M239.264 100.379L241.148 117.193L238.273 117.485C237.81 113.144 237.149 109.872 236.29 107.669C235.497 105.401 234.373 103.878 232.919 103.101C231.531 102.258 229.614 101.837 227.169 101.837H214.478C212.892 101.837 211.669 102.258 210.81 103.101C209.951 103.878 209.521 105.077 209.521 106.697V132.647H220.427C222.476 132.647 224.029 132.355 225.087 131.772C226.144 131.189 226.904 130.087 227.367 128.468C227.896 126.783 228.16 124.321 228.16 121.081H230.54V148.003H228.16C228.16 144.763 227.896 142.334 227.367 140.714C226.904 139.029 226.144 137.895 225.087 137.312C224.029 136.729 222.476 136.437 220.427 136.437H209.521V164.331C209.521 166.599 209.819 168.089 210.413 168.802C211.008 169.515 212.264 169.871 214.181 169.871H227.07C229.647 169.871 231.762 169.385 233.415 168.413C235.067 167.441 236.521 165.692 237.777 163.165C239.033 160.573 240.289 156.783 241.545 151.794L244.519 152.571L239.661 171.426L238.868 174.731H185.132V172.301C188.172 172.301 190.452 172.074 191.973 171.621C193.493 171.102 194.517 170.292 195.046 169.191C195.575 168.025 195.839 166.405 195.839 164.331V107.377C195.839 105.304 195.575 103.716 195.046 102.615C194.517 101.448 193.493 100.638 191.973 100.185C190.452 99.6664 188.172 99.4072 185.132 99.4072V96.9774H238.868L239.264 100.379Z"
    fill="currentColor" />
  <path
    d="M255.097 107.377C255.097 105.304 254.833 103.716 254.304 102.615C253.775 101.448 252.751 100.638 251.23 100.185C249.71 99.6664 247.43 99.4072 244.389 99.4072V96.9774H279.486V99.4072C276.446 99.4072 274.166 99.6664 272.646 100.185C271.125 100.638 270.101 101.448 269.572 102.615C269.043 103.716 268.779 105.304 268.779 107.377V164.331C268.779 166.405 269.043 168.025 269.572 169.191C270.101 170.292 271.125 171.102 272.646 171.621C274.166 172.074 276.446 172.301 279.486 172.301V174.731H244.389V172.301C247.43 172.301 249.71 172.074 251.23 171.621C252.751 171.102 253.775 170.292 254.304 169.191C254.833 168.025 255.097 166.405 255.097 164.331V107.377ZM308.635 165.595C310.353 168.251 312.072 170.033 313.79 170.94C315.509 171.783 317.657 172.204 320.235 172.204V174.731H287.12V172.301C289.963 172.301 291.945 172.139 293.069 171.815C294.259 171.491 294.854 170.876 294.854 169.968C294.854 169.061 294.127 167.474 292.673 165.206L271.555 133.327L291.582 108.64C293.829 105.854 294.953 103.813 294.953 102.517C294.953 101.351 294.358 100.541 293.168 100.088C292.045 99.634 289.996 99.4072 287.021 99.4072V96.9774H318.945V99.4072C315.376 99.4072 310.353 99.7636 308.238 100.476C306.189 101.124 304.206 102.615 302.289 104.947L283.254 126.913L308.635 165.595Z"
    fill="currentColor" />
  <path
    d="M373.077 100.379L374.961 117.193L372.086 117.485C371.623 113.144 370.962 109.872 370.103 107.669C369.31 105.401 368.186 103.878 366.732 103.101C365.344 102.258 363.427 101.837 360.982 101.837H348.291C346.705 101.837 345.482 102.258 344.623 103.101C343.764 103.878 343.334 105.077 343.334 106.697V132.647H354.24C356.289 132.647 357.842 132.355 358.9 131.772C359.957 131.189 360.718 130.087 361.18 128.468C361.709 126.783 361.973 124.321 361.973 121.081H364.353V148.003H361.973C361.973 144.763 361.709 142.334 361.18 140.714C360.718 139.029 359.957 137.895 358.9 137.312C357.842 136.729 356.289 136.437 354.24 136.437H343.334V164.331C343.334 166.599 343.632 168.089 344.227 168.802C344.821 169.515 346.077 169.871 347.994 169.871H360.883C363.46 169.871 365.576 169.385 367.228 168.413C368.88 167.441 370.334 165.692 371.59 163.165C372.846 160.573 374.102 156.783 375.358 151.794L378.332 152.571L373.474 171.426L372.681 174.731H318.945V172.301C321.985 172.301 324.266 172.074 325.786 171.621C327.306 171.102 328.331 170.292 328.859 169.191C329.388 168.025 329.653 166.405 329.653 164.331V107.377C329.653 105.304 329.388 103.716 328.859 102.615C328.331 101.448 327.306 100.638 325.786 100.185C324.266 99.6664 321.985 99.4072 318.945 99.4072V96.9774H372.681L373.077 100.379Z"
    fill="currentColor" />
  <path
    d="M436.4 164.137C437.458 166.34 438.416 167.992 439.275 169.094C440.135 170.13 441.225 170.908 442.547 171.426C443.869 171.945 445.687 172.204 448 172.204V174.731H442.051C436.962 174.731 433.261 174.472 430.947 173.953C428.7 173.435 426.882 172.431 425.494 170.94C424.172 169.385 422.619 166.729 420.835 162.971L408.541 137.992H407.153C405.104 137.992 403.584 137.96 402.592 137.895V164.331C402.592 166.405 402.857 168.025 403.385 169.191C403.914 170.292 404.939 171.102 406.459 171.621C407.979 172.074 410.259 172.301 413.3 172.301V174.731H378.203V172.301C381.243 172.301 383.523 172.074 385.044 171.621C386.564 171.102 387.588 170.292 388.117 169.191C388.646 168.025 388.91 166.405 388.91 164.331V107.377C388.91 105.304 388.646 103.716 388.117 102.615C387.588 101.448 386.564 100.638 385.044 100.185C383.523 99.6664 381.243 99.4072 378.203 99.4072V96.9774H410.92C428.898 96.9774 437.887 103.619 437.887 116.902C437.887 123.187 435.904 127.982 431.939 131.286C428.039 134.526 422.784 136.567 416.175 137.409C419.017 138.057 421.363 139.223 423.214 140.908C425.131 142.528 427.048 145.476 428.964 149.753L436.4 164.137ZM402.592 133.91C404.707 134.04 406.294 134.105 407.351 134.105C412.44 134.105 416.472 132.744 419.447 130.023C422.487 127.236 424.007 122.928 424.007 117.096C424.007 111.913 422.784 107.993 420.339 105.336C417.959 102.679 414.522 101.351 410.028 101.351C407.979 101.351 406.062 101.675 404.278 102.323C403.154 102.777 402.592 103.619 402.592 104.85V133.91Z"
    fill="currentColor" />
  <path
    d="M160.852 175.861C154.569 176.726 148.757 175.761 143.417 172.963C138.067 170.101 133.614 165.807 130.056 160.082C126.564 154.347 124.28 147.726 123.204 140.219C122.128 132.711 122.466 125.762 124.22 119.37C126.029 112.904 129.075 107.61 133.356 103.487C137.703 99.3548 142.92 96.8694 149.007 96.0307C155.356 95.156 161.172 96.154 166.456 99.0247C171.796 101.822 176.213 106.088 179.705 111.823C183.187 117.494 185.467 124.083 186.543 131.59C187.619 139.097 187.253 146.084 185.443 152.549C183.699 159.005 180.686 164.295 176.405 168.418C172.189 172.532 167.005 175.013 160.852 175.861ZM162.363 171.04C165.702 170.58 168.341 168.973 170.283 166.219C172.289 163.456 173.601 160.037 174.218 155.96C174.826 151.82 174.803 147.472 174.15 142.916C173.12 135.73 171.323 128.78 168.758 122.067C166.194 115.353 163.056 109.995 159.345 105.991C155.691 101.915 151.736 100.169 147.482 100.756C144.209 101.206 141.569 102.813 139.563 105.576C137.556 108.339 136.249 111.791 135.641 115.931C135.024 120.008 135.037 124.291 135.681 128.783C136.721 136.033 138.49 143.02 140.989 149.742C143.553 156.455 146.695 161.846 150.415 165.914C154.126 169.917 158.109 171.626 162.363 171.04Z"
    fill="currentColor" />
</svg>