<svg xmlns="http://www.w3.org/2000/svg" width="48" height="56" viewBox="0 0 48 56" fill="none">
  <path
    d="M3.01549 0C1.35008 0 0 1.65918 0 3.70588V52.2941C0 54.3408 1.35008 56 3.01549 56H19.3188C19.1065 55.8191 18.8934 55.6342 18.6796 55.445C15.9966 53.0723 15.065 50.7487 14.3819 48.5973C13.6987 46.4458 13.3509 44.4296 14.3819 41.4667C14.6069 40.8172 14.9409 40.0441 15.335 39.2021C15.1782 39.2046 14.8664 39.1877 14.7939 39.1528C14.5471 39.034 14.4444 38.7397 14.5645 38.4955L16.004 35.5672C16.0419 35.4902 16.1175 35.4382 16.2036 35.43L17.2535 35.342C17.7067 34.5284 18.0912 34.1292 18.4156 33.7923C18.7799 33.414 19.0684 33.1145 19.2931 32.3954C20.1874 29.4817 20.7215 22.8429 20.5104 19.4498C20.3583 17.0067 19.9938 16.1314 19.644 15.4015L19.6149 15.341L19.5426 15.1914C19.442 14.9828 19.3445 14.7748 19.2558 14.5322C18.8444 13.4063 18.1264 13.2839 16.8262 13.0624L16.7219 13.0446C16.2606 12.9616 15.5614 12.8435 14.7533 12.7098L14.6006 12.6846C14.0874 12.5998 13.5348 12.5095 12.9745 12.4182L12.2315 12.2974C11.9204 12.2469 11.6112 12.1967 11.3092 12.1477L11.3081 12.1475C10.74 12.0554 10.1975 11.9674 9.71636 11.8889C8.75642 11.7324 7.84437 11.6588 7.03176 11.5932C5.99377 11.5095 5.11801 11.4388 4.51189 11.2251C3.43124 10.8439 4.13925 10.2784 5.70432 9.78665C7.26939 9.29489 9.35615 8.4466 10.3871 7.70896C10.7222 7.4692 11.1373 7.13984 11.592 6.77911C12.5362 6.02999 13.6508 5.14563 14.573 4.64774C15.9394 3.9101 18.9826 3.30769 21.4295 5.32391C23.8889 7.34008 24.4975 9.65128 25.1807 12.2452C25.8638 14.8393 26.7707 20.7898 26.3856 28.2892C26.2167 31.6875 25.9602 33.5228 25.7208 34.6511L25.8638 34.6395C25.8912 34.6373 25.9187 34.6396 25.9453 34.6463C26.0783 34.6798 26.1587 34.8136 26.1249 34.9452L25.782 36.2798L25.6286 37.7388C25.6088 37.9267 25.4488 38.0694 25.2579 38.0694H24.9578L24.9529 38.0899C24.7574 38.9033 24.7124 39.0906 27.0391 37.7293C30.1071 35.9344 34.3179 34.5575 37.3983 34.6804C37.5295 34.6856 37.6624 34.6909 37.797 34.6961C40.4688 34.8009 44.7941 34.9313 48 35.7706V3.70588C48 1.65918 47.6499 0 45.9845 0H3.01549Z"
    fill="#ECF0F4" />
</svg>