<svg width="48" height="56" viewBox="0 0 48 56" fill="none" xmlns="http://www.w3.org/2000/svg">
  <path
    d="M12.603 39.7222C12.603 39.7222 12.2357 39.6974 11.8915 39.5283C11.8915 39.5283 11.4025 36.7114 11.8915 34.8574C11.8915 34.8574 12.03 34.7069 12.8632 34.6347C12.8632 34.6347 12.5169 30.0896 18.9475 23.208C25.378 16.3265 25.6865 15.3304 25.2899 12.5609C24.8932 9.79135 22.5153 10.5276 22.0305 11.5215C21.5457 12.5176 20.0934 14.2045 17.9778 15.2871C15.8644 16.3698 14.941 18.5248 12.5463 19.525C10.1516 20.5251 13.7699 17.238 14.2505 13.1218C14.2505 13.1218 13.7006 13.0208 13.8391 12.2454C13.9776 11.47 14.5254 11.1318 14.5254 11.1318C14.5254 11.1318 12.8443 6.13918 17.7512 3.88107C22.6601 1.62089 32.052 4.77607 31.4392 12.4866C30.8263 20.1993 20.4627 26.9468 20.0346 34.5976C20.0346 34.5976 20.6894 34.6636 21.1931 34.7729C21.1931 34.7729 21.5289 37.1939 21.4177 38.8169L21.0819 38.9818C21.0819 38.9818 21.6422 42.4195 26.4295 40.1656C30.2723 38.3549 38.7344 36.037 47.44 39.1922V3.8522C47.44 1.724 45.6854 0 43.5195 0H3.92045C1.75455 0 0 1.724 0 3.8522V51.7283C0 53.8565 1.75455 55.5805 3.92045 55.5805H21.1763C19.8037 54.5618 12.9975 49.0516 12.6051 39.7222H12.603Z"
    fill="white" />
</svg>