<svg width="20" height="20" viewBox="0 0 20 20" fill="none" xmlns="http://www.w3.org/2000/svg">
  <path fill-rule="evenodd" clip-rule="evenodd"
    d="M10 0C7.28437 0 6.94375 0.0114582 5.87708 0.0604165C4.8125 0.108333 4.08542 0.278125 3.45 0.525C2.78289 0.776033 2.17857 1.16955 1.67917 1.67812C1.17025 2.17745 0.776368 2.78177 0.525 3.44896C0.278125 4.08542 0.108333 4.81354 0.0604165 5.87708C0.0104165 6.94375 0 7.28333 0 10C0 12.7156 0.0114582 13.0562 0.0604165 14.1229C0.108333 15.1875 0.278125 15.9146 0.525 16.55C0.776063 17.2171 1.16958 17.8214 1.67812 18.3208C2.23438 18.8781 2.79271 19.2198 3.44896 19.475C4.08542 19.7219 4.8125 19.8917 5.87604 19.9396C6.94375 19.9885 7.28437 20 10 20C12.7156 20 13.0562 19.9885 14.1229 19.9396C15.1875 19.8917 15.9146 19.7219 16.55 19.475C17.2171 19.2239 17.8214 18.8304 18.3208 18.3219C18.8298 17.8226 19.2236 17.2182 19.475 16.551C19.7219 15.9146 19.8917 15.1865 19.9396 14.124C19.9885 13.0562 20 12.7156 20 10C20 7.28437 19.9885 6.94375 19.9396 5.87708C19.8906 4.8125 19.7219 4.08542 19.475 3.45C19.2239 2.78291 18.8304 2.17859 18.3219 1.67917C17.8226 1.17022 17.2182 0.776338 16.551 0.525C15.9146 0.278125 15.1865 0.108333 14.1229 0.0604165C13.0562 0.0104165 12.7167 0 10 0ZM10 1.80208C12.6698 1.80208 12.9865 1.8125 14.0417 1.86042C15.0156 1.90417 15.5448 2.06771 15.8979 2.20417C16.3646 2.38542 16.6979 2.60208 17.0479 2.95208C17.3979 3.30208 17.6146 3.63542 17.7958 4.10208C17.9323 4.45417 18.0948 4.98438 18.1396 5.95937C18.1875 7.01354 18.1979 7.33021 18.1979 10C18.1979 12.6698 18.1875 12.9865 18.1396 14.0417C18.0948 15.0156 17.9323 15.5458 17.7958 15.8979C17.6353 16.3324 17.3794 16.7254 17.0469 17.0479C16.7246 17.3799 16.332 17.6355 15.8979 17.7958C15.5448 17.9323 15.0156 18.0958 14.0406 18.1396C12.9865 18.1875 12.6698 18.1979 9.99896 18.1979C7.32917 18.1979 7.01354 18.1875 5.95937 18.1396C4.98438 18.0958 4.45417 17.9323 4.10208 17.7958C3.66767 17.6356 3.27471 17.38 2.95208 17.0479C2.61997 16.7253 2.3644 16.3323 2.20417 15.8979C2.06771 15.5458 1.90417 15.0156 1.86042 14.0406C1.81146 12.9865 1.80208 12.6698 1.80208 10C1.80208 7.33021 1.8125 7.01354 1.86042 5.95833C1.90417 4.98437 2.06771 4.45521 2.20417 4.10208C2.38542 3.63542 2.60208 3.30208 2.95208 2.95208C3.27471 2.61997 3.66767 2.3644 4.10208 2.20417C4.45417 2.06771 4.98438 1.90417 5.95937 1.86042C7.01354 1.8125 7.33021 1.80208 10 1.80208ZM10 13.3333C9.11594 13.3333 8.2681 12.9821 7.64298 12.357C7.01786 11.7319 6.66667 10.8841 6.66667 10C6.66667 9.11594 7.01786 8.2681 7.64298 7.64298C8.2681 7.01786 9.11594 6.66667 10 6.66667C10.8841 6.66667 11.7319 7.01786 12.357 7.64298C12.9821 8.2681 13.3333 9.11594 13.3333 10C13.3333 10.8841 12.9821 11.7319 12.357 12.357C11.7319 12.9821 10.8841 13.3333 10 13.3333ZM10 4.86458C9.32561 4.86458 8.65782 4.99741 8.03476 5.25549C7.4117 5.51357 6.84558 5.89184 6.36871 6.36871C5.89184 6.84558 5.51357 7.4117 5.25549 8.03476C4.99741 8.65782 4.86458 9.32561 4.86458 10C4.86458 10.6744 4.99741 11.3422 5.25549 11.9652C5.51357 12.5883 5.89184 13.1544 6.36871 13.6313C6.84558 14.1082 7.4117 14.4864 8.03476 14.7445C8.65782 15.0026 9.32561 15.1354 10 15.1354C11.362 15.1354 12.6682 14.5944 13.6313 13.6313C14.5944 12.6682 15.1354 11.362 15.1354 10C15.1354 8.638 14.5944 7.33179 13.6313 6.36871C12.6682 5.40563 11.362 4.86458 10 4.86458ZM16.5375 4.6625C16.5375 4.98076 16.4111 5.28598 16.186 5.51103C15.961 5.73607 15.6558 5.8625 15.3375 5.8625C15.0192 5.8625 14.714 5.73607 14.489 5.51103C14.2639 5.28598 14.1375 4.98076 14.1375 4.6625C14.1375 4.34424 14.2639 4.03902 14.489 3.81397C14.714 3.58893 15.0192 3.4625 15.3375 3.4625C15.6558 3.4625 15.961 3.58893 16.186 3.81397C16.4111 4.03902 16.5375 4.34424 16.5375 4.6625Z"
    fill="#000" />
</svg>